<?xml version="1.0" encoding="UTF-8"?>
<svg height="128px" viewBox="0 0 128 128" width="128px" xmlns="http://www.w3.org/2000/svg" xmlns:xlink="http://www.w3.org/1999/xlink">
    <defs>
        <filter id="a" height="100%" width="100%" x="0%" y="0%">
            <feColorMatrix color-interpolation-filters="sRGB" values="0 0 0 0 1 0 0 0 0 1 0 0 0 0 1 0 0 0 1 0"/>
        </filter>
        <mask id="b">
            <g filter="url(#a)">
                <rect fill-opacity="0.5" height="153.6" width="153.6" x="-12.8" y="-12.8"/>
            </g>
        </mask>
        <clipPath id="c">
            <path d="m 0 0 h 128 v 128 h -128 z m 0 0"/>
        </clipPath>
        <mask id="d">
            <g filter="url(#a)">
                <rect fill-opacity="0.5" height="221.184" width="221.184" x="-46.592" y="-46.592"/>
            </g>
        </mask>
        <clipPath id="e">
            <rect height="152" width="192"/>
        </clipPath>
        <g id="f" clip-path="url(#e)">
            <path d="m 182 19.175781 v 3.824219 c 0 2.179688 -1.820312 4 -4 4 h -3.585938 l -2 2 h 5.585938 l 3 3 v -3 c 1.644531 0 3 -1.355469 3 -3 v -4 c 0 -1.292969 -0.839844 -2.40625 -2 -2.824219 z m 0 0" fill="#241f31"/>
        </g>
        <clipPath id="g">
            <rect height="128" width="128"/>
        </clipPath>
        <clipPath id="h">
            <rect height="128" width="128"/>
        </clipPath>
        <mask id="i">
            <g filter="url(#a)">
                <g clip-path="url(#h)" filter="url(#a)">
                    <g clip-path="url(#g)">
                        <path d="m 124 64 c 0 33.136719 -26.863281 60 -60 60 s -60 -26.863281 -60 -60 s 26.863281 -60 60 -60 s 60 26.863281 60 60 z m 0 0" fill="#1c71d8"/>
                        <path d="m 41.5 34 c -7.398438 0 -13.5 6.101562 -13.5 13.5 v 18 c 0 7.398438 6.101562 13.5 13.5 13.5 v 13.5 l 13.5 -13.5 h 18 c 7.398438 0 13.5 -6.101562 13.5 -13.5 v -18 c 0 -7.398438 -6.101562 -13.5 -13.5 -13.5 z m 0 0" fill="#ffffff"/>
                        <path d="m 91 48.289062 v 17.210938 c 0 9.808594 -8.191406 18 -18 18 h -16.136719 l -9 9 h 25.136719 l 13.5 13.5 v -13.5 c 7.398438 0 13.5 -6.101562 13.5 -13.5 v -18 c 0 -5.820312 -3.78125 -10.828125 -9 -12.710938 z m 0 0" fill="#99c1f1"/>
                        <path d="m 39.25 61 h 13.5 c 1.242188 0 2.25 1.007812 2.25 2.25 s -1.007812 2.25 -2.25 2.25 h -13.5 c -1.242188 0 -2.25 -1.007812 -2.25 -2.25 s 1.007812 -2.25 2.25 -2.25 z m 0 0" fill="#99c1f1"/>
                        <path d="m 39.25 52 h 36 c 1.242188 0 2.25 1.007812 2.25 2.25 s -1.007812 2.25 -2.25 2.25 h -36 c -1.242188 0 -2.25 -1.007812 -2.25 -2.25 s 1.007812 -2.25 2.25 -2.25 z m 0 0" fill="#99c1f1"/>
                        <path d="m 39.25 43 h 36 c 1.242188 0 2.25 1.007812 2.25 2.25 s -1.007812 2.25 -2.25 2.25 h -36 c -1.242188 0 -2.25 -1.007812 -2.25 -2.25 s 1.007812 -2.25 2.25 -2.25 z m 0 0" fill="#99c1f1"/>
                        <g clip-path="url(#c)">
                            <g mask="url(#d)">
                                <use transform="matrix(1 0 0 1 -8 -16)" xlink:href="#f"/>
                            </g>
                        </g>
                    </g>
                </g>
            </g>
        </mask>
        <mask id="j">
            <g filter="url(#a)">
                <rect fill-opacity="0.8" height="184.32" width="184.32" x="-28.16" y="-28.16"/>
            </g>
        </mask>
        <linearGradient id="k" gradientTransform="matrix(0 0.37 -0.98462 0 295.38501 -30.360001)" gradientUnits="userSpaceOnUse" x1="300" x2="428" y1="235" y2="235">
            <stop offset="0" stop-color="#f9f06b"/>
            <stop offset="1" stop-color="#f5c211"/>
        </linearGradient>
        <clipPath id="l">
            <rect height="128" width="128"/>
        </clipPath>
        <clipPath id="m">
            <rect height="128" width="128"/>
        </clipPath>
    </defs>
    <path d="m 124 64 c 0 33.136719 -26.863281 60 -60 60 s -60 -26.863281 -60 -60 s 26.863281 -60 60 -60 s 60 26.863281 60 60 z m 0 0" fill="#1c71d8"/>
    <path d="m 41.5 34 c -7.398438 0 -13.5 6.101562 -13.5 13.5 v 18 c 0 7.398438 6.101562 13.5 13.5 13.5 v 13.5 l 13.5 -13.5 h 18 c 7.398438 0 13.5 -6.101562 13.5 -13.5 v -18 c 0 -7.398438 -6.101562 -13.5 -13.5 -13.5 z m 0 0" fill="#ffffff"/>
    <g fill="#99c1f1">
        <path d="m 91 48.289062 v 17.210938 c 0 9.808594 -8.191406 18 -18 18 h -16.136719 l -9 9 h 25.136719 l 13.5 13.5 v -13.5 c 7.398438 0 13.5 -6.101562 13.5 -13.5 v -18 c 0 -5.820312 -3.78125 -10.828125 -9 -12.710938 z m 0 0"/>
        <path d="m 39.25 61 h 13.5 c 1.242188 0 2.25 1.007812 2.25 2.25 s -1.007812 2.25 -2.25 2.25 h -13.5 c -1.242188 0 -2.25 -1.007812 -2.25 -2.25 s 1.007812 -2.25 2.25 -2.25 z m 0 0"/>
        <path d="m 39.25 52 h 36 c 1.242188 0 2.25 1.007812 2.25 2.25 s -1.007812 2.25 -2.25 2.25 h -36 c -1.242188 0 -2.25 -1.007812 -2.25 -2.25 s 1.007812 -2.25 2.25 -2.25 z m 0 0"/>
        <path d="m 39.25 43 h 36 c 1.242188 0 2.25 1.007812 2.25 2.25 s -1.007812 2.25 -2.25 2.25 h -36 c -1.242188 0 -2.25 -1.007812 -2.25 -2.25 s 1.007812 -2.25 2.25 -2.25 z m 0 0"/>
    </g>
    <g mask="url(#b)">
        <use transform="matrix(1 0 0 1 -8 -16)" xlink:href="#f"/>
    </g>
    <g mask="url(#i)">
        <g clip-path="url(#m)">
            <g mask="url(#j)">
                <g clip-path="url(#l)">
                    <path d="m 128 80.640625 v 47.359375 h -128 v -47.359375 z m 0 0" fill="url(#k)"/>
                    <path d="m 13.308594 80.640625 l 47.355468 47.359375 h 21.214844 l -47.359375 -47.359375 z m 42.421875 0 l 47.363281 47.359375 h 21.214844 l -47.363282 -47.359375 z m 42.429687 0 l 29.839844 29.839844 v -21.210938 l -8.628906 -8.628906 z m -98.160156 7.90625 v 21.214844 l 18.238281 18.238281 h 21.214844 z m 0 0"/>
                </g>
            </g>
        </g>
    </g>
</svg>
