<?xml version="1.0" encoding="UTF-8"?>
<svg height="128px" viewBox="0 0 128 128" width="128px" xmlns="http://www.w3.org/2000/svg" xmlns:xlink="http://www.w3.org/1999/xlink">
    <filter id="a" height="100%" width="100%" x="0%" y="0%">
        <feColorMatrix color-interpolation-filters="sRGB" values="0 0 0 0 1 0 0 0 0 1 0 0 0 0 1 0 0 0 1 0"/>
    </filter>
    <mask id="b">
        <g filter="url(#a)">
            <rect fill-opacity="0.5" height="153.6" width="153.6" x="-12.8" y="-12.8"/>
        </g>
    </mask>
    <clipPath id="c">
        <rect height="152" width="192"/>
    </clipPath>
    <path d="m 124 64 c 0 33.136719 -26.863281 60 -60 60 s -60 -26.863281 -60 -60 s 26.863281 -60 60 -60 s 60 26.863281 60 60 z m 0 0" fill="#1c71d8"/>
    <path d="m 41.5 34 c -7.398438 0 -13.5 6.101562 -13.5 13.5 v 18 c 0 7.398438 6.101562 13.5 13.5 13.5 v 13.5 l 13.5 -13.5 h 18 c 7.398438 0 13.5 -6.101562 13.5 -13.5 v -18 c 0 -7.398438 -6.101562 -13.5 -13.5 -13.5 z m 0 0" fill="#ffffff"/>
    <g fill="#99c1f1">
        <path d="m 91 48.289062 v 17.210938 c 0 9.808594 -8.191406 18 -18 18 h -16.136719 l -9 9 h 25.136719 l 13.5 13.5 v -13.5 c 7.398438 0 13.5 -6.101562 13.5 -13.5 v -18 c 0 -5.820312 -3.78125 -10.828125 -9 -12.710938 z m 0 0"/>
        <path d="m 39.25 61 h 13.5 c 1.242188 0 2.25 1.007812 2.25 2.25 s -1.007812 2.25 -2.25 2.25 h -13.5 c -1.242188 0 -2.25 -1.007812 -2.25 -2.25 s 1.007812 -2.25 2.25 -2.25 z m 0 0"/>
        <path d="m 39.25 52 h 36 c 1.242188 0 2.25 1.007812 2.25 2.25 s -1.007812 2.25 -2.25 2.25 h -36 c -1.242188 0 -2.25 -1.007812 -2.25 -2.25 s 1.007812 -2.25 2.25 -2.25 z m 0 0"/>
        <path d="m 39.25 43 h 36 c 1.242188 0 2.25 1.007812 2.25 2.25 s -1.007812 2.25 -2.25 2.25 h -36 c -1.242188 0 -2.25 -1.007812 -2.25 -2.25 s 1.007812 -2.25 2.25 -2.25 z m 0 0"/>
    </g>
    <g mask="url(#b)">
        <g clip-path="url(#c)" transform="matrix(1 0 0 1 -8 -16)">
            <path d="m 182 19.175781 v 3.824219 c 0 2.179688 -1.820312 4 -4 4 h -3.585938 l -2 2 h 5.585938 l 3 3 v -3 c 1.644531 0 3 -1.355469 3 -3 v -4 c 0 -1.292969 -0.839844 -2.40625 -2 -2.824219 z m 0 0" fill="#241f31"/>
        </g>
    </g>
</svg>
